<svg version="1.1" id="Layer_1" xmlns="http://www.w3.org/2000/svg" xmlns:xlink="http://www.w3.org/1999/xlink" x="0px" y="0px"
	 width="100%" viewBox="0 0 561 154" enable-background="new 0 0 561 154" xml:space="preserve">
<path fill="#FEFEFE" opacity="1.000000" stroke="none" 
	d="
M370.000000,155.000000 
	C246.666687,155.000000 123.833374,155.000000 1.000049,155.000000 
	C1.000033,103.666695 1.000033,52.333397 1.000016,1.000070 
	C187.999939,1.000047 374.999878,1.000047 561.999878,1.000023 
	C561.999878,52.333256 561.999878,103.666512 561.999939,154.999878 
	C498.166656,155.000000 434.333344,155.000000 370.000000,155.000000 
M47.057175,121.557144 
	C45.374027,121.696404 43.690884,121.835663 41.642326,121.750824 
	C41.100281,121.855652 40.558239,121.960480 39.091587,121.982544 
	C36.260361,122.027763 33.427010,122.163879 30.598394,122.097687 
	C25.925331,121.988327 24.191257,119.986961 25.149050,115.433243 
	C25.655367,113.026009 26.551552,110.599297 27.763636,108.460091 
	C32.273438,100.500725 37.017979,92.674812 41.617531,84.765732 
	C49.639526,70.971680 58.160217,57.425644 65.328880,43.199680 
	C67.901405,38.094604 68.202393,31.236467 67.693123,25.337875 
	C67.027832,17.632233 57.859455,10.738433 51.298893,11.482217 
	C52.484287,12.791329 53.669678,14.100442 55.026417,15.598785 
	C52.438629,16.449154 50.231327,17.152639 48.038399,17.898411 
	C18.451021,27.960522 -0.291782,59.035309 4.759695,89.642799 
	C12.413698,136.019302 61.897476,159.879822 102.953125,136.757339 
	C107.288887,134.315445 109.984985,135.110184 112.942459,138.087799 
	C113.850281,139.001816 114.517212,140.155106 115.294456,141.198807 
	C115.862854,135.678116 113.398125,131.629501 109.240585,129.849167 
	C102.472656,126.951027 95.231628,125.157722 87.677559,122.449059 
	C86.793488,122.399132 85.909409,122.349213 84.161858,122.121155 
	C80.129570,121.907394 76.097282,121.693642 71.150078,121.226006 
	C63.399277,121.366631 55.648472,121.507256 47.057175,121.557144 
M107.826317,108.494682 
	C112.141029,112.630608 116.455734,116.766533 120.808586,120.939018 
	C134.633652,107.210281 141.614944,77.619453 129.720352,52.441807 
	C120.029289,31.928478 95.377258,13.878626 80.321655,16.623091 
	C84.308586,21.272757 84.865387,26.746679 83.415703,32.183380 
	C81.064880,40.999649 78.763618,49.925674 75.270393,58.317924 
	C70.159813,70.595757 64.020287,82.445648 58.306877,94.472031 
	C55.857571,99.627663 56.902645,101.905830 62.519344,102.733963 
	C65.124138,103.118019 67.832100,102.898331 70.489075,102.816139 
	C83.032631,102.428116 95.502815,102.490829 107.826317,108.494682 
M365.207184,63.158936 
	C365.127380,69.231064 369.057159,66.714561 372.546021,66.664490 
	C372.546021,63.865147 372.546021,61.399265 372.546021,58.933384 
	C372.546021,56.346603 372.546021,53.759827 372.546021,50.755859 
	C378.421722,50.755859 383.558807,50.919029 388.681274,50.715038 
	C395.260742,50.453026 397.977295,46.952679 398.011963,39.192921 
	C398.046906,31.373627 395.388947,27.695156 388.934784,27.432974 
	C382.290131,27.163055 375.625427,27.428389 368.972473,27.302427 
	C366.170807,27.249386 365.156128,28.337830 365.149200,31.123318 
	C365.141815,34.087666 366.545959,34.789162 369.170441,34.737213 
	C374.658875,34.628574 380.152740,34.788666 385.640991,34.674625 
	C388.717590,34.610695 390.834717,35.247330 390.893463,38.924320 
	C390.956085,42.844971 388.748016,43.597313 385.439270,43.523438 
	C379.951416,43.400909 374.456848,43.579155 368.968933,43.457104 
	C366.187073,43.395241 365.086792,44.439796 365.167236,47.255852 
	C365.309723,52.243259 365.206604,57.237682 365.207184,63.158936 
M312.056458,40.513012 
	C308.619629,49.094757 305.182831,57.676502 301.746002,66.258247 
	C302.113251,66.800385 302.480499,67.342529 302.847748,67.884666 
	C305.354645,66.755890 309.437714,66.180222 310.065277,64.391922 
	C311.770203,59.533619 314.647247,58.528210 319.078094,59.115486 
	C320.667389,59.326141 322.308014,59.149281 323.958008,59.149281 
	C324.696136,52.442394 320.913605,51.391369 315.423615,51.795910 
	C317.514709,46.546368 319.391968,41.833534 321.694672,36.052746 
	C325.501587,45.575977 329.106995,53.784904 332.036133,62.228443 
	C333.773895,67.237747 336.610016,67.954628 341.626617,66.290192 
	C336.665833,54.101944 332.010986,42.052277 326.826630,30.234913 
	C324.804230,25.625053 318.911438,25.742855 316.436066,30.186680 
	C314.749481,33.214455 313.664764,36.577469 312.056458,40.513012 
M450.188110,57.336868 
	C450.812561,58.875870 451.640808,60.366005 452.023651,61.962929 
	C453.233246,67.008545 456.331726,68.121956 461.039459,66.488029 
	C460.996552,65.867203 461.113007,65.157654 460.883667,64.587128 
	C456.361542,53.338383 451.936768,42.045990 447.102509,30.931965 
	C446.346100,29.193031 443.654572,27.208376 441.922485,27.266443 
	C439.919769,27.333584 437.099091,29.088636 436.191620,30.893999 
	C433.366333,36.514763 431.267548,42.501713 428.906250,48.354420 
	C426.502991,54.311131 424.122650,60.277073 421.732300,66.238976 
	C422.120300,66.774429 422.508301,67.309883 422.896301,67.845337 
	C425.384186,66.735802 429.427277,66.182030 430.060608,64.409752 
	C431.777313,59.605732 434.592987,58.489178 439.058167,59.113731 
	C440.645966,59.335819 442.290894,59.149284 443.979889,59.149284 
	C444.665863,52.486191 440.945099,51.375111 435.423187,51.796539 
	C437.510376,46.556767 439.390045,41.837940 441.682068,36.083935 
	C444.749420,43.709427 447.344147,50.159988 450.188110,57.336868 
M491.794952,112.911850 
	C491.794952,103.466949 491.794952,94.022057 491.794952,84.053970 
	C489.520477,84.153770 487.852051,84.226982 485.841431,84.315216 
	C485.841431,92.646286 485.841431,100.360825 485.841431,109.330002 
	C484.362732,106.878922 483.508453,105.535988 482.725677,104.152588 
	C479.449219,98.362206 476.529022,92.325958 472.738586,86.896179 
	C471.513306,85.140991 468.072357,84.601814 465.543762,84.264381 
	C464.644135,84.144333 462.550812,86.247581 462.522675,87.373878 
	C462.279236,97.130447 462.382416,106.895676 462.382416,117.054230 
	C464.537872,116.952881 466.106842,116.879112 468.209503,116.780251 
	C468.209503,108.723061 468.209503,101.043114 468.209503,93.363159 
	C469.926270,94.523758 470.796539,95.852844 471.578369,97.232056 
	C474.777222,102.875153 477.828003,108.606331 481.169220,114.163231 
	C483.832214,118.592155 489.068329,118.309448 491.794952,112.911850 
M224.867493,91.201080 
	C223.701172,85.895599 220.123566,83.931053 215.007675,84.020607 
	C211.680817,84.078835 208.346954,83.932434 205.026047,84.087799 
	C199.566391,84.343224 196.569214,86.839287 196.150909,92.276161 
	C195.731232,97.730568 195.723526,103.266846 196.138092,108.721420 
	C196.568680,114.387207 199.587585,116.814873 205.416672,117.002678 
	C208.906982,117.115143 212.408112,117.123672 215.897186,116.990540 
	C221.689102,116.769547 224.591354,114.279648 224.958984,108.525902 
	C225.308060,103.062958 225.004807,97.558334 224.867493,91.201080 
M422.843597,84.031273 
	C416.279205,84.638168 413.559082,86.686668 413.131012,92.449173 
	C412.725830,97.903107 412.721222,103.438721 413.158966,108.888741 
	C413.597351,114.347031 416.568451,116.771751 422.082520,116.985413 
	C425.736145,117.126976 429.404541,117.128983 433.057770,116.981293 
	C438.604126,116.757057 441.525360,114.316849 441.919312,108.865875 
	C442.313629,103.409470 442.294312,97.885185 441.943420,92.423599 
	C441.592926,86.968025 438.663727,84.389275 433.237518,84.097946 
	C430.085602,83.928726 426.918640,84.040016 422.843597,84.031273 
M266.455841,43.397179 
	C264.290222,43.402409 262.124603,43.407566 259.958984,43.412880 
	C247.139603,43.444336 245.944687,44.874844 248.078278,57.636230 
	C249.113373,63.827381 252.150192,66.635262 258.514221,66.914444 
	C262.837616,67.104103 267.174652,66.994751 271.505585,66.998421 
	C278.731781,67.004539 279.255859,66.240143 276.987640,58.284054 
	C271.861603,58.284054 266.566376,58.327263 261.272186,58.272602 
	C255.283829,58.210773 254.445709,57.121273 255.618912,50.719955 
	C261.677551,50.719955 267.814667,50.639099 273.947968,50.756908 
	C276.673981,50.809273 277.856110,49.895515 277.875122,47.030254 
	C277.894531,44.103706 276.606567,43.206036 273.926178,43.359413 
	C271.767426,43.482944 269.596344,43.391159 266.455841,43.397179 
M154.226624,102.965004 
	C158.380753,103.047974 162.537216,103.253792 166.688263,103.174927 
	C169.992203,103.112152 169.871811,105.186684 169.933853,107.479866 
	C170.000488,109.943062 169.222229,111.164848 166.517792,111.071404 
	C162.197601,110.922134 157.851028,110.824135 153.554016,111.175041 
	C152.350327,111.273323 151.281372,113.021355 150.150620,114.012634 
	C151.263321,115.015739 152.319412,116.798790 153.498688,116.884346 
	C158.132462,117.220551 162.805267,117.051964 167.463135,117.015060 
	C173.984787,116.963387 175.849487,114.859032 175.893494,107.605591 
	C175.942047,99.601593 174.058289,97.310211 167.327408,97.220291 
	C165.331406,97.193619 163.334763,97.211761 161.338409,97.215340 
	C158.697556,97.220078 155.976013,97.822372 156.047134,93.459610 
	C156.113861,89.366692 158.661575,90.014877 161.107590,90.012032 
	C165.551605,90.006866 169.995621,90.010567 174.553711,90.010567 
	C174.553711,87.729774 174.553711,86.047203 174.553711,84.056160 
	C168.165329,84.056160 162.185928,83.844933 156.238861,84.190239 
	C154.546326,84.288513 152.423935,85.630768 151.407639,87.052368 
	C148.719482,90.812538 150.017410,99.150543 154.226624,102.965004 
M536.500427,86.593163 
	C535.737732,85.742233 534.999573,84.181557 534.208374,84.154182 
	C528.563293,83.958908 522.864563,83.690445 517.278992,84.310333 
	C515.402954,84.518532 512.856201,86.937950 512.241272,88.865242 
	C509.115082,98.663383 512.658569,103.204391 522.861694,103.206650 
	C523.693054,103.206833 524.524353,103.205208 525.355713,103.207001 
	C531.790588,103.220879 532.205139,103.806992 530.412598,111.075821 
	C524.488159,111.075821 518.417297,111.075821 512.204407,111.075821 
	C512.204407,113.300346 512.204407,114.984932 512.204407,117.001297 
	C518.738159,117.001297 524.866272,117.042252 530.993591,116.985611 
	C534.551086,116.952736 536.548157,114.882782 537.024170,111.529831 
	C537.348389,109.245987 537.360718,106.880043 537.199646,104.572655 
	C536.819336,99.123978 534.834229,97.331596 529.264709,97.232552 
	C525.525146,97.166039 521.783447,97.219894 518.098145,97.219894 
	C518.098145,94.420891 518.098145,92.493050 518.098145,90.006554 
	C523.181946,90.006554 527.968689,90.187714 532.725098,89.888237 
	C534.030029,89.806068 535.244446,88.284981 536.500427,86.593163 
M312.166351,89.704865 
	C312.163635,94.858505 312.036285,100.016045 312.197510,105.164551 
	C312.327179,109.305771 310.898499,111.533386 306.429352,111.050224 
	C305.114807,110.908104 303.771790,111.033936 302.441803,111.029480 
	C295.953003,111.007729 295.494934,110.579643 295.442444,103.891449 
	C295.391815,97.438408 295.431488,90.984650 295.431488,84.430695 
	C293.174805,84.430695 291.484467,84.430695 289.784058,84.430695 
	C289.784058,92.951408 289.407288,101.083458 289.916290,109.159698 
	C290.256500,114.558144 293.184357,116.735710 298.498627,116.958504 
	C302.148926,117.111549 305.812500,117.037682 309.467896,116.959419 
	C314.412262,116.853569 317.528076,114.057213 317.767944,109.371468 
	C318.189880,101.128891 317.885925,92.849159 317.885925,84.306778 
	C316.030914,84.306778 314.457245,84.306778 312.477539,84.306778 
	C312.368469,85.868271 312.267426,87.315460 312.166351,89.704865 
M223.489136,60.898399 
	C218.452530,60.567711 213.411102,59.920521 208.380722,59.997307 
	C203.561829,60.070866 201.808441,57.995403 201.891876,53.431740 
	C202.016388,46.620792 201.924164,39.805756 201.911987,32.992481 
	C201.901184,26.939724 201.357727,26.549608 195.080978,28.197802 
	C195.080978,37.914932 194.715103,47.700397 195.210312,57.442093 
	C195.537506,63.878895 199.255142,66.752396 205.780838,66.979515 
	C210.096512,67.129707 214.444504,66.755829 218.734589,67.123413 
	C223.071640,67.495018 224.494217,65.780663 223.489136,60.898399 
M349.571869,102.491608 
	C349.571869,107.228104 349.571869,111.964607 349.571869,116.700760 
	C351.997772,116.700760 353.572113,116.700760 355.780334,116.700760 
	C355.780334,107.692131 355.780334,98.987587 355.780334,89.796555 
	C359.820709,89.796555 363.228027,89.796555 366.702820,89.796555 
	C366.702820,87.704445 366.702820,86.128242 366.702820,84.024284 
	C357.801361,84.024284 349.196625,83.944252 340.598694,84.149590 
	C339.750214,84.169846 338.167816,86.067764 338.301392,86.863213 
	C338.496002,88.022156 339.824829,89.703278 340.872772,89.867371 
	C343.587921,90.292503 346.413879,90.010017 349.572388,90.010017 
	C349.572388,94.228333 349.572388,97.864578 349.571869,102.491608 
M256.743622,111.028252 
	C252.372986,111.548126 251.297226,109.003159 251.318909,105.305511 
	C251.359589,98.368439 251.330612,91.430962 251.330612,84.434517 
	C249.029053,84.434517 247.332809,84.434517 245.472321,84.434517 
	C245.472321,92.621750 245.275543,100.403824 245.550385,108.169197 
	C245.701263,112.432533 247.631607,116.292534 252.375687,116.715996 
	C257.897644,117.208885 263.497284,116.830994 269.559418,116.830994 
	C269.418091,114.620125 269.309875,112.927254 269.188568,111.029999 
	C264.976562,111.029999 261.329559,111.029999 256.743622,111.028252 
M492.532562,56.431969 
	C492.532532,48.303444 492.489044,40.174561 492.556763,32.046600 
	C492.579559,29.307554 492.488708,27.178778 488.721680,27.269321 
	C485.234009,27.353151 485.166840,29.343075 485.195709,31.868738 
	C485.258209,37.342335 485.214905,42.817139 485.214905,48.291447 
	C485.214874,54.383377 485.214905,60.475307 485.214905,66.669601 
	C487.956543,66.669601 489.986511,66.669601 492.532074,66.669601 
	C492.532074,63.328552 492.532074,60.367638 492.532562,56.431969 
M264.484161,34.666382 
	C267.804260,34.671509 271.128448,34.576710 274.443268,34.711754 
	C277.364716,34.830780 278.095398,33.416473 278.076538,30.757765 
	C278.058533,28.228210 277.205261,27.152239 274.603729,27.180614 
	C266.802399,27.265703 258.997772,27.304825 251.198120,27.160812 
	C248.204391,27.105539 247.571701,28.501825 247.571411,31.103628 
	C247.571136,33.612743 248.417389,34.745705 251.042953,34.671257 
	C255.189499,34.553684 259.342255,34.655399 264.484161,34.666382 
M392.923615,105.474518 
	C392.923584,99.834755 392.709747,94.184387 392.988861,88.558472 
	C393.226837,83.761871 391.088928,83.297813 387.353119,84.525856 
	C387.353119,95.432076 387.353119,106.098701 387.353119,117.109848 
	C389.354767,116.966316 390.923187,116.853859 392.923584,116.710419 
	C392.923584,113.033775 392.923584,109.748909 392.923615,105.474518 
z"/>
<path fill="#27689D" opacity="1.000000" stroke="none" 
	d="
M72.064987,121.479874 
	C76.097282,121.693642 80.129570,121.907394 84.847946,122.428436 
	C86.419449,122.789871 87.304848,122.844017 88.190254,122.898163 
	C95.231628,125.157722 102.472656,126.951027 109.240585,129.849167 
	C113.398125,131.629501 115.862854,135.678116 115.294456,141.198807 
	C114.517212,140.155106 113.850281,139.001816 112.942459,138.087799 
	C109.984985,135.110184 107.288887,134.315445 102.953125,136.757339 
	C61.897476,159.879822 12.413698,136.019302 4.759695,89.642799 
	C-0.291782,59.035309 18.451021,27.960522 48.038399,17.898411 
	C50.231327,17.152639 52.438629,16.449154 55.026417,15.598785 
	C53.669678,14.100442 52.484287,12.791329 51.300171,11.483246 
	C57.859455,10.738433 67.027832,17.632233 67.693123,25.337875 
	C68.202393,31.236467 67.901405,38.094604 65.328880,43.199680 
	C58.160217,57.425644 49.639526,70.971680 41.617531,84.765732 
	C37.017979,92.674812 32.273438,100.500725 27.763636,108.460091 
	C26.551552,110.599297 25.655367,113.026009 25.149050,115.433243 
	C24.191257,119.986961 25.925331,121.988327 30.598394,122.097687 
	C33.427010,122.163879 36.260361,122.027763 39.710068,122.232826 
	C40.888279,122.313713 41.448009,122.144318 42.007736,121.974915 
	C43.690884,121.835663 45.374027,121.696404 47.745178,121.944763 
	C55.856670,122.488235 63.279915,122.667496 70.704208,122.742241 
	C71.153519,122.746773 71.611206,121.919899 72.064987,121.479874 
z"/>
<path fill="#EFA83B" opacity="1.000000" stroke="none" 
	d="
M107.498474,108.311554 
	C95.502815,102.490829 83.032631,102.428116 70.489075,102.816139 
	C67.832100,102.898331 65.124138,103.118019 62.519344,102.733963 
	C56.902645,101.905830 55.857571,99.627663 58.306877,94.472031 
	C64.020287,82.445648 70.159813,70.595757 75.270393,58.317924 
	C78.763618,49.925674 81.064880,40.999649 83.415703,32.183380 
	C84.865387,26.746679 84.308586,21.272757 80.321655,16.623091 
	C95.377258,13.878626 120.029289,31.928478 129.720352,52.441807 
	C141.614944,77.619453 134.633652,107.210281 120.808586,120.939018 
	C116.455734,116.766533 112.141029,112.630608 107.498474,108.311554 
z"/>
<path fill="#129DB6" opacity="1.000000" stroke="none" 
	d="
M365.206726,62.694054 
	C365.206604,57.237682 365.309723,52.243259 365.167236,47.255852 
	C365.086792,44.439796 366.187073,43.395241 368.968933,43.457104 
	C374.456848,43.579155 379.951416,43.400909 385.439270,43.523438 
	C388.748016,43.597313 390.956085,42.844971 390.893463,38.924320 
	C390.834717,35.247330 388.717590,34.610695 385.640991,34.674625 
	C380.152740,34.788666 374.658875,34.628574 369.170441,34.737213 
	C366.545959,34.789162 365.141815,34.087666 365.149200,31.123318 
	C365.156128,28.337830 366.170807,27.249386 368.972473,27.302427 
	C375.625427,27.428389 382.290131,27.163055 388.934784,27.432974 
	C395.388947,27.695156 398.046906,31.373627 398.011963,39.192921 
	C397.977295,46.952679 395.260742,50.453026 388.681274,50.715038 
	C383.558807,50.919029 378.421722,50.755859 372.546021,50.755859 
	C372.546021,53.759827 372.546021,56.346603 372.546021,58.933384 
	C372.546021,61.399265 372.546021,63.865147 372.546021,66.664490 
	C369.057159,66.714561 365.127380,69.231064 365.206726,62.694054 
z"/>
<path fill="#099AB4" opacity="1.000000" stroke="none" 
	d="
M312.183716,40.151794 
	C313.664764,36.577469 314.749481,33.214455 316.436066,30.186680 
	C318.911438,25.742855 324.804230,25.625053 326.826630,30.234913 
	C332.010986,42.052277 336.665833,54.101944 341.626617,66.290192 
	C336.610016,67.954628 333.773895,67.237747 332.036133,62.228443 
	C329.106995,53.784904 325.501587,45.575977 321.694672,36.052746 
	C319.391968,41.833534 317.514709,46.546368 315.423615,51.795910 
	C320.913605,51.391369 324.696136,52.442394 323.958008,59.149281 
	C322.308014,59.149281 320.667389,59.326141 319.078094,59.115486 
	C314.647247,58.528210 311.770203,59.533619 310.065277,64.391922 
	C309.437714,66.180222 305.354645,66.755890 302.847748,67.884666 
	C302.480499,67.342529 302.113251,66.800385 301.746002,66.258247 
	C305.182831,57.676502 308.619629,49.094757 312.183716,40.151794 
z"/>
<path fill="#099AB4" opacity="1.000000" stroke="none" 
	d="
M450.063507,56.973709 
	C447.344147,50.159988 444.749420,43.709427 441.682068,36.083935 
	C439.390045,41.837940 437.510376,46.556767 435.423187,51.796539 
	C440.945099,51.375111 444.665863,52.486191 443.979889,59.149284 
	C442.290894,59.149284 440.645966,59.335819 439.058167,59.113731 
	C434.592987,58.489178 431.777313,59.605732 430.060608,64.409752 
	C429.427277,66.182030 425.384186,66.735802 422.896301,67.845337 
	C422.508301,67.309883 422.120300,66.774429 421.732300,66.238976 
	C424.122650,60.277073 426.502991,54.311131 428.906250,48.354420 
	C431.267548,42.501713 433.366333,36.514763 436.191620,30.893999 
	C437.099091,29.088636 439.919769,27.333584 441.922485,27.266443 
	C443.654572,27.208376 446.346100,29.193031 447.102509,30.931965 
	C451.936768,42.045990 456.361542,53.338383 460.883667,64.587128 
	C461.113007,65.157654 460.996552,65.867203 461.039459,66.488029 
	C456.331726,68.121956 453.233246,67.008545 452.023651,61.962929 
	C451.640808,60.366005 450.812561,58.875870 450.063507,56.973709 
z"/>
<path fill="#0D9BB5" opacity="1.000000" stroke="none" 
	d="
M491.738281,113.350502 
	C489.068329,118.309448 483.832214,118.592155 481.169220,114.163231 
	C477.828003,108.606331 474.777222,102.875153 471.578369,97.232056 
	C470.796539,95.852844 469.926270,94.523758 468.209503,93.363159 
	C468.209503,101.043114 468.209503,108.723061 468.209503,116.780251 
	C466.106842,116.879112 464.537872,116.952881 462.382416,117.054230 
	C462.382416,106.895676 462.279236,97.130447 462.522675,87.373878 
	C462.550812,86.247581 464.644135,84.144333 465.543762,84.264381 
	C468.072357,84.601814 471.513306,85.140991 472.738586,86.896179 
	C476.529022,92.325958 479.449219,98.362206 482.725677,104.152588 
	C483.508453,105.535988 484.362732,106.878922 485.841431,109.330002 
	C485.841431,100.360825 485.841431,92.646286 485.841431,84.315216 
	C487.852051,84.226982 489.520477,84.153770 491.794952,84.053970 
	C491.794952,94.022057 491.794952,103.466949 491.738281,113.350502 
z"/>
<path fill="#0B9AB4" opacity="1.000000" stroke="none" 
	d="
M224.927948,91.636559 
	C225.004807,97.558334 225.308060,103.062958 224.958984,108.525902 
	C224.591354,114.279648 221.689102,116.769547 215.897186,116.990540 
	C212.408112,117.123672 208.906982,117.115143 205.416672,117.002678 
	C199.587585,116.814873 196.568680,114.387207 196.138092,108.721420 
	C195.723526,103.266846 195.731232,97.730568 196.150909,92.276161 
	C196.569214,86.839287 199.566391,84.343224 205.026047,84.087799 
	C208.346954,83.932434 211.680817,84.078835 215.007675,84.020607 
	C220.123566,83.931053 223.701172,85.895599 224.927948,91.636559 
M219.051834,108.036522 
	C219.095932,103.542290 219.150742,99.048134 219.180115,94.553810 
	C219.197784,91.848366 218.106781,89.582367 215.166550,90.122704 
	C210.785889,90.927765 205.399063,87.183403 202.062744,92.851334 
	C201.984222,92.984741 201.980652,93.175735 201.980560,93.339890 
	C201.977722,98.166153 201.912613,102.994240 202.043198,107.817009 
	C202.066620,108.681770 202.706650,109.758636 203.397949,110.333687 
	C205.488434,112.072655 216.480042,110.974701 219.051834,108.036522 
z"/>
<path fill="#0B9AB4" opacity="1.000000" stroke="none" 
	d="
M423.301025,84.028175 
	C426.918640,84.040016 430.085602,83.928726 433.237518,84.097946 
	C438.663727,84.389275 441.592926,86.968025 441.943420,92.423599 
	C442.294312,97.885185 442.313629,103.409470 441.919312,108.865875 
	C441.525360,114.316849 438.604126,116.757057 433.057770,116.981293 
	C429.404541,117.128983 425.736145,117.126976 422.082520,116.985413 
	C416.568451,116.771751 413.597351,114.347031 413.158966,108.888741 
	C412.721222,103.438721 412.725830,97.903107 413.131012,92.449173 
	C413.559082,86.686668 416.279205,84.638168 423.301025,84.028175 
M436.224792,102.414696 
	C436.223663,100.417183 436.247345,98.419289 436.216797,96.422226 
	C436.125244,90.441605 435.696655,90.038811 429.526154,90.002663 
	C418.829926,89.939995 418.829956,89.939987 418.831635,100.941521 
	C418.833191,111.051826 418.833160,111.051834 428.327209,111.044128 
	C436.114594,111.037804 436.114594,111.037796 436.224792,102.414696 
z"/>
<path fill="#109CB5" opacity="1.000000" stroke="none" 
	d="
M266.943298,43.396042 
	C269.596344,43.391159 271.767426,43.482944 273.926178,43.359413 
	C276.606567,43.206036 277.894531,44.103706 277.875122,47.030254 
	C277.856110,49.895515 276.673981,50.809273 273.947968,50.756908 
	C267.814667,50.639099 261.677551,50.719955 255.618912,50.719955 
	C254.445709,57.121273 255.283829,58.210773 261.272186,58.272602 
	C266.566376,58.327263 271.861603,58.284054 276.987640,58.284054 
	C279.255859,66.240143 278.731781,67.004539 271.505585,66.998421 
	C267.174652,66.994751 262.837616,67.104103 258.514221,66.914444 
	C252.150192,66.635262 249.113373,63.827381 248.078278,57.636230 
	C245.944687,44.874844 247.139603,43.444336 259.958984,43.412880 
	C262.124603,43.407566 264.290222,43.402409 266.943298,43.396042 
z"/>
<path fill="#0C9BB5" opacity="1.000000" stroke="none" 
	d="
M153.819824,102.822830 
	C150.017410,99.150543 148.719482,90.812538 151.407639,87.052368 
	C152.423935,85.630768 154.546326,84.288513 156.238861,84.190239 
	C162.185928,83.844933 168.165329,84.056160 174.553711,84.056160 
	C174.553711,86.047203 174.553711,87.729774 174.553711,90.010567 
	C169.995621,90.010567 165.551605,90.006866 161.107590,90.012032 
	C158.661575,90.014877 156.113861,89.366692 156.047134,93.459610 
	C155.976013,97.822372 158.697556,97.220078 161.338409,97.215340 
	C163.334763,97.211761 165.331406,97.193619 167.327408,97.220291 
	C174.058289,97.310211 175.942047,99.601593 175.893494,107.605591 
	C175.849487,114.859032 173.984787,116.963387 167.463135,117.015060 
	C162.805267,117.051964 158.132462,117.220551 153.498688,116.884346 
	C152.319412,116.798790 151.263321,115.015739 150.150620,114.012634 
	C151.281372,113.021355 152.350327,111.273323 153.554016,111.175041 
	C157.851028,110.824135 162.197601,110.922134 166.517792,111.071404 
	C169.222229,111.164848 170.000488,109.943062 169.933853,107.479866 
	C169.871811,105.186684 169.992203,103.112152 166.688263,103.174927 
	C162.537216,103.253792 158.380753,103.047974 153.819824,102.822830 
z"/>
<path fill="#0B9AB4" opacity="1.000000" stroke="none" 
	d="
M536.500366,87.008682 
	C535.244446,88.284981 534.030029,89.806068 532.725098,89.888237 
	C527.968689,90.187714 523.181946,90.006554 518.098145,90.006554 
	C518.098145,92.493050 518.098145,94.420891 518.098145,97.219894 
	C521.783447,97.219894 525.525146,97.166039 529.264709,97.232552 
	C534.834229,97.331596 536.819336,99.123978 537.199646,104.572655 
	C537.360718,106.880043 537.348389,109.245987 537.024170,111.529831 
	C536.548157,114.882782 534.551086,116.952736 530.993591,116.985611 
	C524.866272,117.042252 518.738159,117.001297 512.204407,117.001297 
	C512.204407,114.984932 512.204407,113.300346 512.204407,111.075821 
	C518.417297,111.075821 524.488159,111.075821 530.412598,111.075821 
	C532.205139,103.806992 531.790588,103.220879 525.355713,103.207001 
	C524.524353,103.205208 523.693054,103.206833 522.861694,103.206650 
	C512.658569,103.204391 509.115082,98.663383 512.241272,88.865242 
	C512.856201,86.937950 515.402954,84.518532 517.278992,84.310333 
	C522.864563,83.690445 528.563293,83.958908 534.208374,84.154182 
	C534.999573,84.181557 535.737732,85.742233 536.500366,87.008682 
z"/>
<path fill="#0E9BB5" opacity="1.000000" stroke="none" 
	d="
M312.166351,89.233749 
	C312.267426,87.315460 312.368469,85.868271 312.477539,84.306778 
	C314.457245,84.306778 316.030914,84.306778 317.885925,84.306778 
	C317.885925,92.849159 318.189880,101.128891 317.767944,109.371468 
	C317.528076,114.057213 314.412262,116.853569 309.467896,116.959419 
	C305.812500,117.037682 302.148926,117.111549 298.498627,116.958504 
	C293.184357,116.735710 290.256500,114.558144 289.916290,109.159698 
	C289.407288,101.083458 289.784058,92.951408 289.784058,84.430695 
	C291.484467,84.430695 293.174805,84.430695 295.431488,84.430695 
	C295.431488,90.984650 295.391815,97.438408 295.442444,103.891449 
	C295.494934,110.579643 295.953003,111.007729 302.441803,111.029480 
	C303.771790,111.033936 305.114807,110.908104 306.429352,111.050224 
	C310.898499,111.533386 312.327179,109.305771 312.197510,105.164551 
	C312.036285,100.016045 312.163635,94.858505 312.166351,89.233749 
z"/>
<path fill="#0899B4" opacity="1.000000" stroke="none" 
	d="
M223.630096,61.317890 
	C224.494217,65.780663 223.071640,67.495018 218.734589,67.123413 
	C214.444504,66.755829 210.096512,67.129707 205.780838,66.979515 
	C199.255142,66.752396 195.537506,63.878895 195.210312,57.442093 
	C194.715103,47.700397 195.080978,37.914932 195.080978,28.197802 
	C201.357727,26.549608 201.901184,26.939724 201.911987,32.992481 
	C201.924164,39.805756 202.016388,46.620792 201.891876,53.431740 
	C201.808441,57.995403 203.561829,60.070866 208.380722,59.997307 
	C213.411102,59.920521 218.452530,60.567711 223.630096,61.317890 
z"/>
<path fill="#0F9CB5" opacity="1.000000" stroke="none" 
	d="
M349.572144,101.996216 
	C349.572388,97.864578 349.572388,94.228333 349.572388,90.010017 
	C346.413879,90.010017 343.587921,90.292503 340.872772,89.867371 
	C339.824829,89.703278 338.496002,88.022156 338.301392,86.863213 
	C338.167816,86.067764 339.750214,84.169846 340.598694,84.149590 
	C349.196625,83.944252 357.801361,84.024284 366.702820,84.024284 
	C366.702820,86.128242 366.702820,87.704445 366.702820,89.796555 
	C363.228027,89.796555 359.820709,89.796555 355.780334,89.796555 
	C355.780334,98.987587 355.780334,107.692131 355.780334,116.700760 
	C353.572113,116.700760 351.997772,116.700760 349.571869,116.700760 
	C349.571869,111.964607 349.571869,107.228104 349.572144,101.996216 
z"/>
<path fill="#0E9BB5" opacity="1.000000" stroke="none" 
	d="
M257.213074,111.029129 
	C261.329559,111.029999 264.976562,111.029999 269.188568,111.029999 
	C269.309875,112.927254 269.418091,114.620125 269.559418,116.830994 
	C263.497284,116.830994 257.897644,117.208885 252.375687,116.715996 
	C247.631607,116.292534 245.701263,112.432533 245.550385,108.169197 
	C245.275543,100.403824 245.472321,92.621750 245.472321,84.434517 
	C247.332809,84.434517 249.029053,84.434517 251.330612,84.434517 
	C251.330612,91.430962 251.359589,98.368439 251.318909,105.305511 
	C251.297226,109.003159 252.372986,111.548126 257.213074,111.029129 
z"/>
<path fill="#0F9BB5" opacity="1.000000" stroke="none" 
	d="
M492.532318,56.919342 
	C492.532074,60.367638 492.532074,63.328552 492.532074,66.669601 
	C489.986511,66.669601 487.956543,66.669601 485.214905,66.669601 
	C485.214905,60.475307 485.214874,54.383377 485.214905,48.291447 
	C485.214905,42.817139 485.258209,37.342335 485.195709,31.868738 
	C485.166840,29.343075 485.234009,27.353151 488.721680,27.269321 
	C492.488708,27.178778 492.579559,29.307554 492.556763,32.046600 
	C492.489044,40.174561 492.532532,48.303444 492.532318,56.919342 
z"/>
<path fill="#1CA0B9" opacity="1.000000" stroke="none" 
	d="
M263.988281,34.665344 
	C259.342255,34.655399 255.189499,34.553684 251.042953,34.671257 
	C248.417389,34.745705 247.571136,33.612743 247.571411,31.103628 
	C247.571701,28.501825 248.204391,27.105539 251.198120,27.160812 
	C258.997772,27.304825 266.802399,27.265703 274.603729,27.180614 
	C277.205261,27.152239 278.058533,28.228210 278.076538,30.757765 
	C278.095398,33.416473 277.364716,34.830780 274.443268,34.711754 
	C271.128448,34.576710 267.804260,34.671509 263.988281,34.665344 
z"/>
<path fill="#0B9AB5" opacity="1.000000" stroke="none" 
	d="
M392.923584,105.969284 
	C392.923584,109.748909 392.923584,113.033775 392.923584,116.710419 
	C390.923187,116.853859 389.354767,116.966316 387.353119,117.109848 
	C387.353119,106.098701 387.353119,95.432076 387.353119,84.525856 
	C391.088928,83.297813 393.226837,83.761871 392.988861,88.558472 
	C392.709747,94.184387 392.923584,99.834755 392.923584,105.969284 
z"/>
<path fill="#487FA6" opacity="1.000000" stroke="none" 
	d="
M71.607529,121.352936 
	C71.611206,121.919899 71.153519,122.746773 70.704208,122.742241 
	C63.279915,122.667496 55.856670,122.488235 48.165428,121.990128 
	C55.648472,121.507256 63.399277,121.366631 71.607529,121.352936 
z"/>
<path fill="#487FA6" opacity="1.000000" stroke="none" 
	d="
M41.825031,121.862869 
	C41.448009,122.144318 40.888279,122.313713 40.172371,122.274208 
	C40.558239,121.960480 41.100281,121.855652 41.825031,121.862869 
z"/>
<path fill="#487FA6" opacity="1.000000" stroke="none" 
	d="
M87.933907,122.673615 
	C87.304848,122.844017 86.419449,122.789871 85.279694,122.517502 
	C85.909409,122.349213 86.793488,122.399132 87.933907,122.673615 
z"/>
<path fill="#FBFDFE" opacity="1.000000" stroke="none" 
	d="
M218.952545,108.483582 
	C216.480042,110.974701 205.488434,112.072655 203.397949,110.333687 
	C202.706650,109.758636 202.066620,108.681770 202.043198,107.817009 
	C201.912613,102.994240 201.977722,98.166153 201.980560,93.339890 
	C201.980652,93.175735 201.984222,92.984741 202.062744,92.851334 
	C205.399063,87.183403 210.785889,90.927765 215.166550,90.122704 
	C218.106781,89.582367 219.197784,91.848366 219.180115,94.553810 
	C219.150742,99.048134 219.095932,103.542290 218.952545,108.483582 
z"/>
<path fill="#FBFDFE" opacity="1.000000" stroke="none" 
	d="
M436.224304,102.891342 
	C436.114594,111.037796 436.114594,111.037804 428.327209,111.044128 
	C418.833160,111.051834 418.833191,111.051826 418.831635,100.941521 
	C418.829956,89.939987 418.829926,89.939995 429.526154,90.002663 
	C435.696655,90.038811 436.125244,90.441605 436.216797,96.422226 
	C436.247345,98.419289 436.223663,100.417183 436.224304,102.891342 
z"/>
</svg>